<svg width="93" height="141" viewBox="0 0 93 141" fill="none" xmlns="http://www.w3.org/2000/svg">
<path d="M15.8349 119.826C15.8439 119.808 15.8511 119.792 15.8601 119.774C15.8601 119.79 15.8583 119.805 15.8583 119.821C15.8854 119.815 15.9125 119.812 15.9395 119.806L15.8529 119.962C15.6363 125.948 15.0444 131.92 14.0969 137.836C18.255 137.814 22.4132 137.794 26.5713 137.773C38.9573 137.713 51.3451 137.659 63.7311 137.619C64.8464 137.616 65.9636 137.614 67.0789 137.61C72.2946 137.417 77.5103 137.224 82.7261 137.038C82.69 129.399 81.6161 121.766 79.5371 114.416C81.0765 115.975 83.7476 116.015 85.6064 114.852C87.4653 113.692 88.5662 111.575 88.9615 109.418C89.3567 107.263 89.1293 105.045 88.8442 102.872C87.4635 92.3435 84.5922 81.6738 78.0626 73.2998C76.4149 71.2027 74.7942 69.4431 73.1735 67.6834C69.472 72.3126 64.0758 75.3951 58.3782 77.0212C52.6788 78.6473 46.669 78.9 40.7512 78.5913C36.0372 78.3459 31.2925 77.7395 26.8673 76.0972C22.442 74.4549 18.3272 71.708 15.8403 68.1581L14.503 65.4365C11.646 74.906 8.79093 84.3774 5.93401 93.8469C4.84936 97.4419 3.75748 101.079 3.51926 104.825C3.28103 108.574 3.97225 112.503 6.17043 115.547C8.34515 118.567 12.1857 120.523 15.8349 119.826Z" fill="#EDA15C"/>
<path d="M15.8349 119.826C15.6165 120.276 15.3981 120.727 15.1797 121.176C15.4035 120.772 15.6273 120.368 15.8529 119.963C15.8547 119.916 15.8565 119.869 15.8583 119.823C15.8511 119.824 15.8421 119.824 15.8349 119.826Z" fill="#EDA15C"/>
<path d="M25.3477 115.39C27.3293 113.584 30.7872 113.77 32.563 115.778C32.8644 113.912 32.1119 111.909 30.6536 110.705C33.09 109.574 36.3602 110.985 37.2103 113.533C37.5766 111.719 37.0948 109.752 35.9325 108.314C37.1724 108.328 38.3816 109.043 38.9916 110.122C39.4355 108.045 38.9519 105.787 37.6957 104.073C36.4396 102.358 34.4328 101.218 32.3176 101.014C35.1348 100.663 38.0964 101.961 39.7496 104.268C40.2459 104.959 40.6375 105.738 41.2637 106.314C41.89 106.89 42.8627 107.215 43.6009 106.792C44.6657 106.182 44.5159 104.625 44.2235 103.434C47.4486 108.832 48.6073 115.43 47.4125 121.604C46.9866 123.806 46.1185 126.148 44.1676 127.253C42.4097 128.247 40.134 127.96 38.3906 126.942C36.6472 125.925 35.3586 124.279 34.2974 122.561C33.2362 120.842 32.3555 119.011 31.1824 117.368C30.585 116.533 29.8992 115.735 29.0221 115.203C28.1432 114.667 27.0441 114.427 25.3477 115.39Z" fill="#F0EAD7"/>
<path d="M60.2624 95.8681C64.0523 94.3666 68.548 94.7799 72.0005 96.9474C69.9683 96.8625 67.9181 97.2632 66.0664 98.106C69.0461 97.7396 72.1575 98.5789 74.5488 100.396C71.6648 100.172 68.7357 100.546 66.0033 101.49C68.5841 101.17 71.293 102.123 73.105 103.988C74.1716 105.085 74.9223 106.451 75.9438 107.594C76.9653 108.736 78.4073 109.68 79.9269 109.498C78.7917 110.104 77.3966 109.956 76.1694 109.572C74.9404 109.187 73.7817 108.584 72.5256 108.305C71.2695 108.025 69.8275 108.126 68.8782 108.998C71.0078 108.819 73.1988 109.496 74.8556 110.846C73.1988 110.505 71.2046 110.263 70.0676 111.513C69.416 112.228 69.2464 113.257 69.2175 114.224C69.167 115.868 69.4395 117.505 69.5009 119.149C69.5622 120.794 69.3872 122.512 68.5317 123.918C67.3027 125.937 64.7706 126.964 62.419 126.718C60.0674 126.473 57.9288 125.096 56.4164 123.279C54.9041 121.461 53.962 119.231 53.3141 116.957C52.0508 112.522 51.8667 107.633 53.6859 103.396C55.505 99.1582 59.582 95.7418 63.8412 95.3881C62.5526 94.6914 60.793 95.0542 60.2624 95.8681Z" fill="#F0EAD7"/>
<path d="M45.8857 81.6792C51.5436 82.8866 57.5859 82.2116 62.8359 79.7842C60.2876 82.522 57.1762 84.7328 53.7526 86.238C57.4127 85.5035 60.8399 83.8918 64.0993 82.0708C65.5575 81.2569 67.0663 80.3762 68.7339 80.3112C70.4014 80.248 72.2495 81.3399 72.3722 83.0039C72.3397 81.7009 72.3073 80.3978 72.2766 79.0948C74.861 78.7194 77.4255 80.2354 79.0281 82.2964C80.6308 84.3574 81.4537 86.9021 82.2478 89.3891C82.4175 87.1277 82.2298 84.8411 81.6938 82.6375C84.1229 84.7545 85.8266 87.6908 86.4547 90.8509C84.2475 82.5798 80.0135 74.8554 74.2257 68.5479C70.6198 72.3288 66.0448 75.0774 61.2405 77.133C56.4381 79.1905 51.3848 80.5873 45.8857 81.6792Z" fill="#C77543"/>
<path d="M13.4959 68.6525C10.8628 78.8078 8.22785 88.9649 5.59473 99.1202C7.95714 92.7404 10.4621 86.1387 15.3277 81.3832C15.7789 83.5958 16.2301 85.8084 16.6813 88.0228C16.638 85.5449 16.804 82.6393 18.8542 81.2478C20.4189 80.1866 22.507 80.4483 24.3479 80.8851C28.5854 81.8903 32.9908 83.603 37.1526 82.3198C33.3951 83.5958 29.4589 84.3448 25.4975 84.5361C28.6143 85.6388 32.0596 84.8104 35.198 83.7709C38.3365 82.7313 41.5327 81.468 44.8282 81.7297C41.2096 78.8998 36.4505 78.1256 31.926 77.3369C27.4015 76.5482 22.6334 75.5286 19.291 72.3775C17.5638 70.7478 15.9035 68.4431 13.4959 68.6525Z" fill="#C77543"/>
<path d="M17.0206 103.443C20.2655 101.476 22.4637 97.8805 22.7362 94.0959C22.9095 95.5758 23.0845 97.0557 23.2578 98.5338C25.3314 95.6967 26.1652 91.9844 25.5029 88.5337C25.9866 91.0242 26.472 93.5292 26.5063 96.0667C26.519 97.0124 26.463 97.9888 26.0624 98.8442C25.3026 100.468 23.5014 101.31 21.7923 101.855C20.0814 102.398 18.2406 102.824 17.0206 103.443Z" fill="#C77543"/>
<path d="M4.93958 99.3081C4.04803 102.176 3.6943 105.273 4.39274 108.193C5.09118 111.113 6.93202 113.836 9.61568 115.184C12.2993 116.533 15.8186 116.298 18.0421 114.278C17.1108 115.733 15.5966 116.802 13.9146 117.193C15.3927 118.087 17.2678 118.072 18.9372 117.632C20.6066 117.19 22.1424 116.363 23.7324 115.686C25.3206 115.009 27.0351 114.473 28.7514 114.663C27.0568 114.762 25.5209 115.677 24.171 116.706C22.821 117.735 21.5631 118.911 20.0525 119.686C16.8942 121.303 12.8967 120.877 9.90805 118.964C6.91939 117.051 4.91792 113.806 4.113 110.35C3.30809 106.893 3.63294 103.242 4.93958 99.3081Z" fill="#C77543"/>
<path d="M7.83799 88.9523C5.45211 93.9225 4.07328 99.3729 3.80798 104.877C5.28427 100.358 6.76236 95.841 8.23864 91.3219C9.18072 88.4397 10.1336 85.4817 10.0073 82.4534C8.65012 84.7634 8.52379 87.5211 7.83799 88.9523Z" fill="#C77543"/>
<path d="M73.354 110.42C76.3607 110.624 78.7466 113.434 81.7587 113.513C84.1987 113.576 86.3843 111.723 87.3643 109.487C88.3442 107.251 88.3334 104.711 88.0844 102.282C89.169 105.395 88.9579 108.938 87.5141 111.902C86.4854 114.009 84.4821 115.973 82.1467 115.753C78.8404 115.437 77.1638 111.135 73.354 110.42Z" fill="#C77543"/>
<path d="M35.4218 79.8313C36.0733 80.7193 37.1507 81.2769 38.2516 81.2986C35.3857 83.2315 32.0235 84.4226 28.5782 84.724C32.2996 85.8863 36.4613 87.4329 37.9557 91.0334C35.7575 90.2808 33.3572 90.1292 31.0814 90.5985C33.5773 91.1507 35.8621 92.6072 37.4142 94.6375C37.9376 95.3215 38.3942 96.2347 38.0242 97.0144C37.6705 97.7633 36.7411 98.0052 35.9271 98.155C33.5232 98.5971 31.1066 98.9761 28.6829 99.2919C33.6333 97.9348 39.2461 99.3136 43.0035 102.811C46.761 106.309 48.5387 111.808 47.5389 116.843C49.257 115.971 51.5147 116.318 52.8918 117.666C52.5272 113.019 52.1789 108.227 53.6353 103.798C55.0917 99.3696 58.8312 95.3522 63.482 95.0526C61.3217 94.0257 58.7662 93.8596 56.4904 94.5978C59.7498 93.4283 62.7637 91.5784 65.2814 89.2034C61.1268 90.8584 56.1259 90.1762 52.5669 87.469C55.0051 86.9439 56.5608 84.5977 57.7068 82.3851C58.8546 80.1706 60.0151 77.7234 62.2458 76.6099C61.0492 78.4309 58.9828 79.5372 56.8604 80.0281C54.738 80.5189 52.5308 80.4612 50.3525 80.4034C45.3443 80.2663 40.3325 80.1309 35.4218 79.8313Z" fill="#F0EAD7"/>
<path d="M30.9171 137.755C30.9261 137.755 30.937 137.755 30.946 137.755C32.6262 136.332 34.07 134.631 35.1962 132.739C34.9146 134.517 34.2505 136.219 33.2976 137.744C43.4421 137.697 53.5866 137.653 63.7311 137.621C64.1155 137.619 64.4999 137.619 64.8843 137.617C63.2492 136.112 61.827 134.376 60.6864 132.468C63.7166 133.566 67.2431 133.19 69.9737 131.479C67.5517 130.718 65.1279 129.956 62.706 129.193C64.5558 128.166 66.2342 126.827 67.6437 125.249C64.3681 127.338 59.6722 126.832 56.9145 124.094C53.0397 120.245 53.2003 113.239 48.665 110.196C48.5892 110.788 48.5152 111.38 48.4394 111.972C48.2355 111.661 48.0315 111.353 47.8276 111.042C47.9215 115.053 48.0009 119.158 46.7285 122.961C46.2088 124.517 45.4002 126.072 44.0106 126.944C41.7691 128.348 38.6721 127.475 36.7591 125.648C34.8461 123.822 33.839 121.268 33.3102 121.292C33.4059 126.861 32.5955 132.445 30.9171 137.755Z" fill="#F0EAD7"/>
<path d="M38.6342 80.4537C38.008 81.1251 37.3817 81.7965 36.7555 82.4678C39.2659 82.2368 41.7998 82.2801 44.2993 82.596C42.8014 83.1717 41.3035 83.7474 39.8073 84.3231C41.502 83.9225 43.2201 83.52 44.9617 83.5561C46.7033 83.5922 48.5008 84.1138 49.7425 85.3356C49.6468 84.8519 49.5512 84.3664 49.4555 83.8828C49.6793 84.5577 49.9031 85.2327 50.1269 85.9077C50.5474 84.8519 51.4949 84.0903 52.4965 83.5507C53.4981 83.0111 54.5846 82.6429 55.5736 82.0798C57.317 81.089 58.7066 79.4936 59.4502 77.6311C54.7687 79.0081 49.9644 79.961 45.1133 80.4772C42.8934 80.7154 40.6285 80.8562 38.6342 80.4537Z" fill="#D7BD9C"/>
<path d="M31.8033 118.649C32.684 119.324 33.2922 120.285 33.9022 121.212C34.5122 122.14 35.1673 123.08 36.1022 123.676C37.0371 124.271 38.3274 124.45 39.2388 123.815C38.8617 124.331 38.4845 124.849 38.1073 125.365C39.3363 125.569 40.5022 124.551 40.9064 123.374C41.3107 122.198 41.1465 120.909 40.9786 119.675C41.5543 120.404 41.585 121.404 41.8449 122.295C42.1048 123.187 42.8592 124.12 43.7688 123.936C44.4798 123.791 44.8805 123.037 45.0953 122.344C45.5482 120.887 45.624 119.314 45.3136 117.819C45.3118 118.834 45.8785 119.83 46.752 120.346C47.2555 119.523 47.5587 118.579 47.6273 117.617C48.0081 120.068 47.6183 122.71 46.1709 124.722C44.7235 126.737 42.1156 127.98 39.6936 127.444C38.1542 127.103 36.8241 126.103 35.8026 124.903C34.7811 123.703 34.0321 122.295 31.8033 118.649Z" fill="#D7BD9C"/>
<path d="M32.9439 120.415C32.9294 124.852 32.7111 129.29 32.2888 133.708C32.6894 131.463 33.5828 129.307 34.8858 127.435C36.7681 128.689 38.8364 129.996 41.0941 129.843C43.3609 129.689 45.3371 127.998 46.2683 125.926C44.016 127.897 40.578 128.386 37.8636 127.121C35.1493 125.858 33.3139 122.911 32.9439 120.415Z" fill="#D7BD9C"/>
<path d="M53.8844 102.67C52.3792 107.504 51.8504 112.589 51.6501 117.646C51.5725 119.604 51.5544 121.629 52.3034 123.439C53.0524 125.25 54.7597 126.805 56.7196 126.773C55.7559 127.899 54.1749 128.464 52.7149 128.2C54.9203 129.969 57.9523 130.66 60.7045 130.02C63.4586 129.381 65.8751 127.424 67.0735 124.863C65.2362 126.751 62.1303 126.982 59.7282 125.903C57.326 124.824 55.5556 122.665 54.3229 120.339C52.4695 116.841 51.6483 112.75 52.3377 108.852" fill="#D7BD9C"/>
<path d="M70.0116 111.981C69.8925 115.089 69.5207 118.187 68.9053 121.237C69.6849 120.494 70.0008 119.398 70.2516 118.35C70.5043 117.303 70.7443 116.204 71.4283 115.372C72.1123 114.54 73.3973 114.085 74.2924 114.686C75.0865 115.219 75.2562 116.366 74.9367 117.267C74.6191 118.168 73.9279 118.877 73.2565 119.557C74.4747 119.03 75.5233 118.117 76.2109 116.982C76.3246 118.37 76.0629 119.786 75.4601 121.043C76.2073 120.124 76.9526 119.205 77.6998 118.287C81.3201 123.427 82.2261 129.936 83.0292 136.17C83.3721 128.805 81.3472 121.555 79.2826 114.475C79.4324 114.627 79.584 114.778 79.7338 114.93C78.4722 113.396 77.1494 111.815 75.3536 110.965C73.5579 110.115 71.145 110.218 70.0116 111.981Z" fill="#C77543"/>
<path d="M14.5246 137.834C15.9594 133.475 16.2174 128.556 19.0834 124.982C19.4461 124.531 20.1031 124.084 20.5416 124.462C20.7654 124.656 20.8051 124.984 20.8087 125.28C20.8232 126.24 20.6373 127.202 20.2637 128.085C21.2473 126.421 22.0143 124.627 22.5359 122.764C23.1405 123.737 23.2217 124.964 22.9997 126.089C22.7777 127.213 22.2814 128.261 21.7905 129.296C23.6783 127.823 25.1293 125.798 25.9162 123.537C26.1977 122.728 26.3962 121.889 26.768 121.116C27.1398 120.346 27.7191 119.629 28.5168 119.323C29.4264 118.972 30.4768 119.214 31.3087 119.721C32.1389 120.229 32.7922 120.976 33.4329 121.71C32.9817 120.023 32.3862 118.323 31.2528 116.993C30.1194 115.663 28.3472 114.764 26.629 115.081C24.9362 115.395 23.6765 116.758 22.3301 117.832C20.2799 119.465 17.784 120.534 15.7987 120.562C15.3494 126.32 14.9018 132.077 14.4524 137.834C14.4759 137.836 14.5011 137.834 14.5246 137.834Z" fill="#C77543"/>
<path d="M46.9595 66.44C46.059 56.6204 45.2324 46.7989 44.5917 36.9558C44.2741 32.092 43.9366 27.2138 43.7922 22.3392C43.7904 22.2832 43.7886 22.2273 43.7868 22.1713C38.8039 22.9203 33.821 23.6693 28.8363 24.4182C25.2592 22.3139 22.2958 19.6988 19.0996 17.4393C15.9052 15.1815 12.4275 13.2649 8.66999 12.4871C6.89051 12.1189 4.78437 12.1225 3.5806 13.5753C2.67823 14.6636 2.55912 16.25 2.61506 17.7046C2.78651 22.1352 4.14368 26.4017 5.48642 30.5941C7.67738 37.4323 10.0506 44.5737 15.0317 49.4465C14.1041 53.5162 14.8025 57.6996 14.4867 61.7116C14.3207 63.8069 13.8767 65.8697 13.3678 67.9217C14.1997 68.3873 15.0335 68.8475 15.8619 69.3204C17.9446 70.5061 19.9641 71.7983 21.9746 73.1158C24.0338 74.4675 26.0768 75.8482 28.0891 77.2793C28.959 77.8966 29.8144 78.5192 30.6572 79.1707C35.1132 78.4632 39.6124 78.0265 44.1062 77.8803C45.3804 77.8388 46.6563 77.8316 47.9323 77.8496C47.5497 74.0506 47.3061 70.2228 46.9595 66.44Z" fill="#EDA15C"/>
<path d="M31.0344 36.0642C32.9168 36.1454 34.7468 37.1344 35.9271 38.7081C36.2971 39.2008 36.7808 39.8199 37.3438 39.6322C37.8239 39.4715 37.9737 38.8254 37.9755 38.2876C37.9845 36.6507 37.3402 35.021 36.2357 33.8895C37.1128 34.6095 37.8474 35.5264 38.378 36.5659C38.3726 34.8153 37.4936 33.0954 36.122 32.1461C34.7504 31.1968 32.9258 31.0506 31.4369 31.7671C32.3573 32.0251 33.1965 32.6081 33.7921 33.4058C33.2272 32.9799 32.5865 32.6712 31.9134 32.5016C32.5252 32.794 33.0774 33.2271 33.5232 33.7631C32.4927 32.8896 30.8756 32.942 29.8957 33.8804C30.7926 33.7415 31.7401 34.0573 32.4043 34.7196C31.6174 34.2215 30.5345 34.3298 29.8469 34.9759C30.5165 34.8063 31.2294 34.8279 31.8899 35.0409C31.177 34.8875 30.392 35.2322 29.9859 35.8801C30.6554 35.8169 31.3376 35.9216 31.0344 36.0642Z" fill="#F0EAD7"/>
<path d="M44.5917 36.9557C44.5304 36.001 44.4672 35.0481 44.404 34.0934C43.7814 31.0163 43.6388 27.7298 43.5486 24.5859C42.9602 28.2424 43.009 32.0161 43.6894 35.6545C43.1389 32.9997 42.1373 30.455 40.7458 28.181C41.6175 32.3211 42.491 36.463 43.3627 40.6031C43.1191 39.9281 42.8754 39.2531 42.6318 38.5782C42.352 39.5888 42.7437 40.6554 42.87 41.7022C42.9963 42.7489 42.6516 44.0736 41.6843 44.2703C41.1429 44.3804 40.6051 44.0826 40.143 43.7578C38.8238 42.8319 37.6886 41.6065 36.8313 40.1862C38.0297 41.9422 38.2787 44.8009 37.1688 46.9377C36.1852 48.8309 34.2632 50.1755 33.8156 52.2888C33.4294 54.1134 34.2848 55.994 35.42 57.4143C36.7285 59.0512 38.4935 60.3362 40.4751 60.6899C42.4567 61.0455 44.6477 60.3579 45.9182 58.6885C46.0373 58.7697 46.1601 58.8437 46.2828 58.9177C45.6493 51.6048 45.07 44.2866 44.5917 36.9557Z" fill="#F0EAD7"/>
<path d="M46.9596 66.4401C46.364 59.952 45.8027 53.4621 45.3046 46.9668C45.2342 46.947 45.162 46.9271 45.0916 46.9055C42.6318 46.1348 40.4571 44.5882 37.7319 43.3501C37.6272 45.0177 37.4973 46.725 36.8458 48.2428C36.1942 49.7606 34.9056 51.0744 33.3536 51.217C31.7347 51.3668 30.2025 50.2027 29.3542 48.7156C28.506 47.2285 28.21 45.4635 28.1342 43.5396C24.8676 45.8984 22.0576 48.9773 19.9298 52.5309C20.7636 51.2314 21.8844 50.1468 23.173 49.387C20.6572 52.123 19.383 56.1133 19.8035 59.9285C19.9497 57.9252 20.8882 56.0014 22.341 54.7308C20.455 59.3961 21.3448 65.0558 24.0934 69.1977C26.842 73.3396 31.2456 76.0215 35.8784 77.1025C39.8055 78.0193 43.8879 77.8551 47.8493 77.0646C47.5154 73.5255 47.2826 69.9629 46.9596 66.4401Z" fill="#F0EAD7"/>
<path d="M18.0385 44.4599C17.5421 42.2202 16.7192 40.0653 15.6093 38.0963C16.5225 39.7441 17.6306 41.2655 18.9011 42.6136C19.6302 42.1642 20.3594 41.7131 21.0885 41.2637C19.3451 40.0022 17.8652 38.3201 16.7914 36.38C17.8778 37.4737 19.2494 38.2389 20.7077 38.5656C19.522 37.5441 18.5727 36.2086 17.9699 34.7088C19.3451 35.4109 20.9802 35.5047 22.4168 34.9597C21.0343 33.7631 20.0489 32.0468 19.6772 30.1825C20.594 31.1751 21.8338 31.8158 23.1278 31.9674C22.3879 31.1408 21.8483 30.1067 21.5812 28.9968C22.5106 29.2495 23.5159 29.1755 24.4056 28.7911C20.7293 23.2234 15.3512 18.9714 9.30528 16.8563C9.00208 16.7498 8.65918 16.6523 8.37764 16.8111C8.00766 17.0205 7.93908 17.5475 7.92464 17.9951C7.59979 27.7497 11.7543 37.5585 18.0385 44.4599Z" fill="#F0EAD7"/>
<path d="M31.76 79.0009C32.9619 78.8222 34.1657 78.6634 35.3713 78.5244C33.6062 78.4558 31.8899 78.0877 30.2656 77.4434C30.6266 78.0913 31.15 78.6291 31.76 79.0009Z" fill="#F0EAD7"/>
<path d="M44.1062 77.8803C45.3804 77.8388 46.6581 77.8316 47.9341 77.8496C47.916 77.68 47.898 77.5085 47.8817 77.3389C45.5771 77.8821 43.2562 78.0066 40.9714 77.7341C40.4931 77.8893 40.0148 78.0193 39.5384 78.1293C41.0598 78.0138 42.583 77.929 44.1062 77.8803Z" fill="#F0EAD7"/>
<path d="M46.3225 59.331C46.1366 59.5909 45.8117 59.7858 45.5139 59.9122C43.7309 60.672 41.8088 61.0528 39.8904 61.0221C38.9717 61.0077 38.0387 60.8976 37.1977 60.5041C36.3567 60.1107 35.6095 59.405 34.7378 58.4341C36.0174 60.2081 37.8672 61.5004 39.8958 62.04C41.9243 62.5796 44.1225 62.363 46.0283 61.4372C46.1799 61.3632 46.3333 61.2838 46.4903 61.2188C46.4344 60.5908 46.3766 59.9609 46.3225 59.331Z" fill="#2B2B2B"/>
<path d="M45.4327 48.6145C44.7776 48.6542 44.1225 48.6957 43.4656 48.7354C42.5054 48.795 41.3648 48.9736 40.9443 49.9031C40.7494 50.3344 40.7639 50.8416 40.8288 51.3162C41.1916 53.9241 43.1046 56.2071 45.4851 56.8712C45.6908 56.864 45.8984 56.8387 46.1023 56.8008C45.8713 54.0721 45.6457 51.3433 45.4327 48.6145Z" fill="#5E5E5E"/>
<path d="M45.5844 50.5364C45.0935 50.6068 44.599 50.5941 44.1171 50.4552C43.6082 50.309 43.1389 50.0292 42.63 49.8885C42.121 49.7477 41.5219 49.7694 41.1393 50.1574C40.7188 50.5833 40.6971 51.2962 40.8198 51.9044C41.1844 53.7055 42.4766 55.0988 43.711 56.3801C43.2183 56.4505 44.4853 57.1742 45.7233 57.1454C45.8587 57.1418 45.994 57.1291 46.1276 57.1111C45.9435 54.9183 45.7612 52.7273 45.5844 50.5364Z" fill="#1C1C1C"/>
<path d="M30.733 39.9444C30.3414 40.0617 30.0111 40.3937 29.8758 40.807C29.7296 41.2546 29.8108 41.7563 29.9877 42.1913C30.4208 43.2579 31.4658 44.0177 32.5504 44.0032C33.6351 43.9906 34.6818 43.1749 34.9868 42.0595C35.2918 40.9442 34.7955 39.6231 33.8336 39.0871C32.8717 38.5529 31.5488 38.9012 30.733 39.9444Z" fill="#2B2B2B"/>
<path d="M27.4394 43.4656C28.0692 42.4531 28.8399 41.5435 29.7206 40.7747C29.7098 41.9658 30.3071 43.1552 31.2691 43.7489C32.231 44.3427 33.525 44.2849 34.4075 43.563C35.29 42.8411 35.6799 41.4785 35.281 40.3668C35.0302 39.672 34.5248 39.127 34.0195 38.6162C35.0446 38.7317 36.0264 39.2425 36.7447 40.0347C37.463 40.827 37.9123 41.8954 37.99 42.9963C37.2464 43.5323 36.5046 44.0702 35.7611 44.6062C34.7811 45.3136 33.7109 46.05 32.5324 45.9904C31.6715 45.9471 30.881 45.4779 30.1682 44.9581C29.4571 44.4401 28.7731 43.85 27.4394 43.4656Z" fill="#99928A"/>
<path d="M33.7235 40.7963C34.0056 40.7963 34.2343 40.5506 34.2343 40.2476C34.2343 39.9446 34.0056 39.699 33.7235 39.699C33.4414 39.699 33.2128 39.9446 33.2128 40.2476C33.2128 40.5506 33.4414 40.7963 33.7235 40.7963Z" fill="white"/>
<path d="M18.1269 55.0051C18.0006 55.5863 17.9482 56.1818 17.9627 56.7774C17.9807 56.8406 17.997 56.9037 18.0168 56.9669C18.0529 56.3136 18.0908 55.6603 18.1269 55.0051Z" fill="#C77543"/>
<path d="M27.2589 73.123C23.8642 70.6378 21.1083 66.8767 20.4604 62.5273C20.2204 62.0905 19.9226 61.6881 19.5725 61.347C18.5636 60.0855 18.0006 58.4377 17.9609 56.7792C17.3328 54.5738 17.3274 52.1698 17.9536 49.9644C17.2733 51.5616 16.8094 53.2653 16.5838 55.0051C15.954 53.0776 15.8403 50.9588 16.259 48.9646C14.9 52.6174 14.5806 56.707 15.3566 60.5511C14.3658 62.8034 13.7287 65.2651 13.6547 65.8841C13.5717 66.5699 13.4869 67.2557 13.4039 67.9415C13.9706 68.2592 14.5391 68.5786 15.1057 68.8962C15.3241 68.3277 15.5479 67.7629 15.7807 67.1998C15.8782 67.9488 15.9774 68.6959 16.0749 69.4449C16.1435 69.4846 16.2103 69.5243 16.277 69.564C16.3781 68.6291 16.4792 67.6961 16.5802 66.7612C16.9574 67.725 17.3346 68.6887 17.7118 69.6524C17.4014 68.7446 17.3996 67.7195 17.71 66.8118C18.7965 69.5423 20.5976 71.9354 22.8355 73.6824C23.4563 74.0939 24.0753 74.5072 24.6908 74.9241C24.7413 74.953 24.7918 74.9837 24.8442 75.0125C23.8822 73.6752 22.9203 72.3361 21.9584 70.9988C26.1436 75.9257 32.5342 78.5914 38.7227 77.9922C34.6981 76.9797 30.6735 75.6225 27.2589 73.123Z" fill="#C77543"/>
<path d="M20.4929 62.5833C20.6842 63.1626 20.8773 63.7437 21.0686 64.323C20.9802 63.7112 20.7799 63.1193 20.4929 62.5833Z" fill="#C77543"/>
<path d="M14.3622 68.4775C14.4272 68.2013 14.494 67.927 14.5607 67.6509C14.4308 67.8891 14.3063 68.1327 14.1835 68.3764C14.2431 68.4107 14.3026 68.445 14.3622 68.4775Z" fill="#C77543"/>
<path d="M17.1902 43.5289C18.1377 45.1315 18.8831 46.8731 19.3974 48.6904C18.9552 47.4289 19.4786 45.8642 20.5669 45.1892C20.1933 45.2325 19.8179 45.2759 19.4443 45.3192C20.1789 44.6622 21.1282 44.2887 22.0847 44.2814C21.5433 43.9223 20.8791 43.7815 20.2511 43.8898C21.4765 42.5597 22.9961 41.5436 24.6492 40.9463C23.7775 40.8217 22.8878 40.8416 22.0215 41.0076C22.8084 40.5366 23.5971 40.0655 24.3839 39.5945C23.6837 39.6685 22.9636 39.5205 22.3373 39.174C23.736 39.1812 25.1347 38.8221 26.3764 38.1345C25.1907 38.1688 23.9977 37.9107 22.9185 37.3819C23.9887 37.6454 25.1455 37.4775 26.1111 36.9181C25.1852 36.7935 24.2829 36.4795 23.4653 35.9958C24.4218 36.1817 25.4469 35.9236 26.2266 35.2992C25.308 35.1801 24.4128 34.8444 23.6259 34.321C24.7683 33.7832 26.0497 33.5955 27.2842 33.7814C26.4847 33.2237 25.5534 32.8826 24.6023 32.8014C25.64 31.715 27.3708 31.4912 28.6179 32.2835C27.8418 31.5255 26.8582 31.0147 25.8241 30.8324C26.7644 30.069 27.8779 29.5493 29.0402 29.3309C28.284 29.7965 27.2968 29.5854 26.5641 29.0782C25.8313 28.5711 25.2881 27.8131 24.716 27.1056C22.6387 24.5303 20.0237 22.4566 17.1198 21.0796C20.1319 23.1605 22.7236 25.9398 24.6637 29.1703C23.5303 29.3471 22.3428 29.1089 21.3447 28.5043C21.9746 29.7911 22.8643 30.9299 23.9345 31.8215C22.3987 32.0651 20.7871 31.6951 19.4786 30.8C20.2547 32.4748 21.3231 33.9926 22.6099 35.2541C20.9314 35.8551 18.9697 35.4201 17.6486 34.1586C18.2965 35.9146 19.5075 37.427 21.0289 38.3781C19.5183 37.8439 18.107 36.9848 16.9087 35.8641C17.8165 37.8529 19.1899 39.5963 20.8683 40.8849C20.3106 41.383 19.7529 41.8811 19.1935 42.381C18.3831 41.3596 17.5728 40.3399 16.7643 39.3184C17.5223 40.7676 18.0854 42.3323 18.4319 43.9512C17.5999 43.9602 16.9321 43.0903 17.1902 43.5289Z" fill="#C77543"/>
<path d="M28.0512 43.7092C29.1431 45.2252 30.9352 46.1294 32.7201 46.0644C32.018 46.2918 31.2691 46.3532 30.5418 46.2413C31.7888 46.8044 33.1893 46.9668 34.5212 46.7033C33.4203 47.1617 32.2075 47.3115 31.0381 47.1346C32.0397 47.8096 33.3066 48.0154 34.449 47.6869C33.6766 48.0785 32.9746 48.629 32.1678 48.9286C31.3611 49.2281 30.3739 49.2263 29.7513 48.6001C29.3362 48.1832 29.1575 47.5732 28.9554 47.0047C28.5457 45.8515 27.979 44.7632 27.2806 43.7814C27.7426 43.6641 28.2443 43.7417 28.0512 43.7092Z" fill="#C77543"/>
<path d="M39.8271 61.3145C40.0798 61.3812 40.3343 61.4354 40.5906 61.4769L39.8271 61.3145Z" fill="#D7BD9C"/>
<path d="M46.9595 66.4401C46.8892 65.664 46.8188 64.888 46.7484 64.1102C46.7285 64.112 46.7087 64.1156 46.6888 64.1174C44.1441 64.3412 41.5254 63.2764 39.7586 61.2984C39.7821 61.3038 39.8037 61.3074 39.8272 61.3128C37.5027 60.6992 35.355 59.0117 33.5232 55.6296C34.1206 59.1778 35.5517 62.6519 38.0134 65.1082C40.4209 67.5121 43.8987 68.8061 47.0985 68.0192C47.0534 67.4941 47.0083 66.9671 46.9595 66.4401Z" fill="#D7BD9C"/>
<path d="M38.0495 43.155C37.6128 41.9747 37.1219 40.8052 36.4072 39.8541C35.6943 38.903 34.7288 38.1847 33.682 38.1107C32.3231 38.015 31.0651 38.9968 30.0545 40.1266C29.172 41.112 28.3941 42.2418 27.7462 43.4744C28.3273 43.8426 28.9067 44.2108 29.4878 44.5771C30.6555 45.3171 31.9242 46.0787 33.22 45.8296C34.9038 45.5066 36.1509 43.5592 38.0495 43.155Z" stroke="#2B2B2B" stroke-width="0.902374" stroke-miterlimit="10" stroke-linecap="round" stroke-linejoin="round"/>
<path d="M30.3324 39.7857C29.8487 40.7963 29.9372 42.1012 30.5725 43.0108C31.2077 43.9204 32.37 44.3752 33.3951 44.0936C34.422 43.8121 35.2413 42.7942 35.328 41.6608C35.4146 40.5274 34.7432 39.3688 33.7488 38.9754C32.7544 38.5801 31.5272 39.0096 30.3324 39.7857Z" stroke="#2B2B2B" stroke-width="0.902374" stroke-miterlimit="10" stroke-linecap="round" stroke-linejoin="round"/>
<path d="M45.4219 48.4736C44.626 48.5729 43.8337 48.6938 43.045 48.84C42.5036 48.9411 41.9369 49.0674 41.52 49.4518C40.9479 49.9806 40.7981 50.8758 40.8559 51.6843C40.9552 53.0721 41.5688 54.4113 42.5343 55.3407C43.498 56.2701 44.8029 56.7827 46.0987 56.7412C45.8641 53.9871 45.6367 51.2313 45.4219 48.4736Z" stroke="#2B2B2B" stroke-width="0.902374" stroke-miterlimit="10" stroke-linecap="round" stroke-linejoin="round"/>
<path d="M45.9398 59.6271C43.1966 61.5455 39.4067 61.9335 36.6995 59.8039C33.9924 57.4812 32.9096 53.9981 32.0523 50.8" stroke="#2B2B2B" stroke-width="0.902374" stroke-miterlimit="10" stroke-linecap="round" stroke-linejoin="round"/>
<path d="M40.1286 61.2803C41.1826 63.5994 44.2759 63.8755 46.3802 63.834" stroke="#2B2B2B" stroke-width="0.902374" stroke-miterlimit="10" stroke-linecap="round" stroke-linejoin="round"/>
<path d="M18.7928 44.7723C15.5713 41.3883 12.6982 37.5749 10.6642 33.2598C8.63028 28.9446 7.459 24.1025 7.69722 19.2748C7.73873 18.45 7.92282 17.47 8.6393 17.1668C9.10132 16.9701 9.62109 17.1397 10.0885 17.3202C15.9269 19.5906 21.083 23.8299 24.6456 29.2839C23.4184 29.6214 22.0612 29.3723 21.009 28.6161C21.823 29.8903 22.7939 31.0489 23.8894 32.0506C22.2164 32.1534 20.5145 31.5272 19.253 30.3469C20.0561 32.2112 21.2419 33.8878 22.6983 35.2197C21.0072 35.7972 19.0365 35.3009 17.7623 33.9762C18.5329 35.864 19.7764 37.5244 21.3285 38.739C19.4317 38.1921 17.7118 36.9649 16.5098 35.2991C17.3364 37.6345 18.8434 39.6865 20.7672 41.096C20.2402 41.4966 19.7114 41.8973 19.1844 42.2997C17.6901 40.7982 16.351 39.118 15.2032 37.2988C16.6831 39.8345 18.1648 42.3701 18.7928 44.7723Z" stroke="#2B2B2B" stroke-width="0.902374" stroke-miterlimit="10" stroke-linecap="round" stroke-linejoin="round"/>
<path d="M12.8949 70.1162C13.2378 68.1256 14.1402 66.5771 14.3207 64.6424C14.5011 62.9008 14.6816 61.3523 14.8621 59.6107C14.8621 57.6761 14.5011 55.9327 14.6816 53.998C14.8621 52.6426 14.8621 51.0941 15.584 49.9337C14.8621 49.1595 13.9597 48.3852 13.2378 47.4179C13.0573 47.2248 13.0573 46.8367 12.8769 46.6436C9.0869 41.9982 6.74072 36.3854 5.29692 30.5796C3.85312 25.5479 2.22885 20.7076 2.77028 15.4828C3.3117 11.9997 7.10167 11.2254 9.80879 12.3859C10.8916 12.967 11.9745 13.5463 13.2378 13.9344C19.013 16.4502 23.8858 20.5145 28.3977 24.7737C33.2705 23.4183 38.3238 22.6441 43.4277 22.1839" stroke="#2B2B2B" stroke-width="0.902374" stroke-miterlimit="10" stroke-linecap="round" stroke-linejoin="round"/>
<path d="M20.5615 66.106C24.7287 73.6318 33.1081 78.2158 41.2349 77.4163" stroke="#2B2B2B" stroke-width="0.902374" stroke-miterlimit="10" stroke-linecap="round" stroke-linejoin="round"/>
<path d="M26.2266 58.2372C29.8595 54.7342 35.0157 53.1316 39.8326 54.0069" stroke="#2B2B2B" stroke-width="0.36095" stroke-miterlimit="10" stroke-linecap="round" stroke-linejoin="round"/>
<path d="M26.9521 60.0204C30.2277 57.3475 34.3443 55.8839 38.4592 55.929" stroke="#2B2B2B" stroke-width="0.36095" stroke-miterlimit="10" stroke-linecap="round" stroke-linejoin="round"/>
<path d="M29.1846 62.8773C31.4946 59.8814 34.9381 57.9233 38.5476 57.5515" stroke="#2B2B2B" stroke-width="0.36095" stroke-miterlimit="10" stroke-linecap="round" stroke-linejoin="round"/>
<path d="M30.6862 34.8767C32.7039 34.7485 34.7523 35.8079 35.9127 37.582" stroke="#2B2B2B" stroke-width="0.36095" stroke-miterlimit="10" stroke-linecap="round" stroke-linejoin="round"/>
<path d="M30.8431 32.2146C33.4438 32.9455 35.7448 34.8297 37.0876 37.3275" stroke="#2B2B2B" stroke-width="0.36095" stroke-miterlimit="10" stroke-linecap="round" stroke-linejoin="round"/>
<path d="M14.7574 57.03C15.2591 59.5892 14.927 61.4264 14.6996 62.0346C15.3584 60.5836 15.4613 60.3273 15.9124 59.7805C15.8312 61.134 15.75 62.4858 15.6688 63.8393C16.3456 63.0254 17.0224 62.2097 17.6973 61.3957C17.4501 62.5201 17.2046 63.6426 16.9574 64.767C18.0132 64.3447 18.9661 63.6372 19.706 62.724C19.706 63.8177 20.0056 65.3228 20.8358 66.588C25.3224 73.4298 33.3968 77.9507 41.1825 77.4742" stroke="#2B2B2B" stroke-width="0.902374" stroke-miterlimit="10" stroke-linecap="round" stroke-linejoin="round"/>
<path d="M47.8222 76.7214C43.4042 77.687 38.8201 77.853 34.449 76.7251C26.7157 74.7308 20.3648 68.9592 14.5084 63.5071C14.3748 65.2613 13.9525 66.9902 13.2685 68.5911C19.8017 75.5231 28.5186 80.0476 37.6416 81.2423C41.1645 81.7044 44.7415 81.6647 48.3077 81.1593C48.12 79.6848 47.9612 78.2049 47.8222 76.7214Z" fill="#303030" stroke="#2B2B2B" stroke-width="0.721899" stroke-miterlimit="10"/>
<path d="M44.709 95.6299C47.765 95.6299 50.2424 92.9724 50.2424 89.6941C50.2424 86.4159 47.765 83.7583 44.709 83.7583C41.653 83.7583 39.1757 86.4159 39.1757 89.6941C39.1757 92.9724 41.653 95.6299 44.709 95.6299Z" fill="#FF9D00"/>
<path d="M44.709 95.0471C47.465 95.0471 49.6991 92.6505 49.6991 89.6942C49.6991 86.7379 47.465 84.3413 44.709 84.3413C41.953 84.3413 39.7189 86.7379 39.7189 89.6942C39.7189 92.6505 41.953 95.0471 44.709 95.0471Z" fill="#FFB640"/>
<path d="M44.709 94.2386C47.0494 94.2386 48.9466 92.204 48.9466 89.6943C48.9466 87.1845 47.0494 85.1499 44.709 85.1499C42.3687 85.1499 40.4715 87.1845 40.4715 89.6943C40.4715 92.204 42.3687 94.2386 44.709 94.2386Z" fill="#FF9D00"/>
<path d="M44.9346 85.9241C44.931 85.9241 44.9256 85.9241 44.9201 85.9241C44.5213 85.9169 44.2037 85.5632 44.2109 85.1354L44.3282 78.3279C44.3354 77.9056 44.6566 77.5681 45.0501 77.5681C45.0537 77.5681 45.0591 77.5681 45.0645 77.5681C45.4634 77.5753 45.781 77.9291 45.7738 78.3568L45.6565 85.1643C45.6493 85.5866 45.3262 85.9241 44.9346 85.9241Z" fill="#303030"/>
<path d="M45.1836 85.5542C45.1818 85.5542 45.18 85.5542 45.1782 85.5542C45.0392 85.547 44.9292 85.2239 44.9328 84.8323L44.9725 78.5951C44.9743 78.207 45.0862 77.8984 45.2233 77.8984C45.2251 77.8984 45.2269 77.8984 45.2287 77.8984C45.3677 77.9057 45.4778 78.2287 45.4742 78.6203L45.4345 84.8575C45.4327 85.2438 45.3208 85.5542 45.1836 85.5542Z" fill="white"/>
<path d="M41.6626 86.4854L42.4116 86.5287L45.7919 92.6359L45.4508 93.3001L41.6626 86.4854Z" fill="#303030"/>
<path d="M40.6249 86.4114L41.4713 86.4619L45.2847 93.5365L44.8985 94.3053L40.6249 86.4114Z" fill="#303030"/>
<path d="M44.8281 90.5171L46.9668 86.534L47.6471 86.5286L45.2504 91.2967L44.8281 90.5171Z" fill="#303030"/>
<path d="M46.6383 88.983L47.9016 86.5286H48.582L47.2934 88.8477L46.6383 88.983Z" fill="#303030"/>
<path d="M45.3822 91.47L46.5282 89.2754L46.8874 90.6614L45.92 92.4481L45.3822 91.47Z" fill="#303030"/>
<path d="M46.5697 90.4232L46.8513 90.7264L48.4124 88.9722L46.5084 89.2988L46.5697 90.4232Z" fill="#303030"/>
<path d="M44.7975 85.2634C44.7812 85.2291 44.7722 85.1912 44.774 85.1515C44.774 85.0938 44.7794 85.0342 44.7921 84.9765C44.7957 84.9602 44.8029 84.9458 44.8101 84.9295C44.7776 84.9295 44.7433 84.9277 44.7108 84.9277C43.8734 84.9277 43.092 85.1804 42.426 85.619C42.4531 85.6749 42.4802 85.729 42.5072 85.7814C42.5307 85.8301 42.5542 85.877 42.5776 85.9258C43.1985 85.5125 43.9294 85.2724 44.7108 85.2724C44.7433 85.2724 44.774 85.2761 44.8047 85.2761C44.8011 85.2743 44.7975 85.2688 44.7975 85.2634Z" fill="#303030"/>
<path d="M45.4941 85.0054C45.4905 85.0252 45.4905 85.0451 45.4869 85.0649C45.467 85.157 45.4328 85.249 45.3912 85.332C45.3894 85.3338 45.3876 85.3356 45.3876 85.3374C46.0861 85.4638 46.7231 85.7814 47.2519 86.2398C47.3873 86.2073 47.5263 86.1875 47.667 86.1658C47.0715 85.5775 46.3225 85.166 45.4941 85.0054Z" fill="#303030"/>
<path d="M48.5116 87.2957C48.4484 87.4112 48.3853 87.5285 48.3203 87.644C48.6055 88.2395 48.7661 88.9127 48.7661 89.6274C48.7661 91.5657 47.5786 93.2116 45.9417 93.7729C45.9759 93.883 46.0084 93.9913 46.0409 94.1014C47.806 93.495 49.0891 91.7191 49.0891 89.6274C49.0891 88.7792 48.878 87.9833 48.5116 87.2957Z" fill="#303030"/>
<path d="M44.5791 94.3107C44.5177 94.1952 44.4564 94.0815 44.3968 93.966C42.3051 93.7946 40.6501 91.914 40.6501 89.6274C40.6501 88.956 40.7927 88.319 41.0472 87.7487C40.9858 87.6223 40.9263 87.4942 40.8685 87.3643C40.5238 88.0356 40.3271 88.8063 40.3271 89.6256C40.3271 92.1721 42.2257 94.253 44.5863 94.3216C44.5845 94.318 44.5809 94.3143 44.5791 94.3107Z" fill="#303030"/>
<path d="M44.709 85.9963C44.0358 85.9963 43.4078 86.2093 42.8808 86.5739C42.9079 86.6316 42.9331 86.6876 42.9602 86.7453C42.9819 86.7922 43.0035 86.841 43.0252 86.8879C43.5088 86.545 44.0864 86.3447 44.709 86.3447C45.3732 86.3447 45.9886 86.5739 46.4903 86.9601C46.5499 86.8626 46.6112 86.7688 46.6762 86.6785C46.1221 86.2472 45.4417 85.9963 44.709 85.9963Z" fill="#303030"/>
<path d="M43.776 92.7549C42.5415 92.3308 41.6464 91.0891 41.6464 89.6273C41.6464 89.4251 41.6644 89.2266 41.6969 89.0335C41.6193 88.8855 41.5417 88.7357 41.4659 88.5859C41.3738 88.9162 41.3233 89.2645 41.3233 89.6273C41.3233 91.3634 42.4657 92.8181 43.9871 93.1736C43.9149 93.0364 43.8445 92.8957 43.776 92.7549Z" fill="#303030"/>
<path d="M43.6731 87.7793C43.8056 87.7793 43.9131 87.6638 43.9131 87.5213C43.9131 87.3787 43.8056 87.2632 43.6731 87.2632C43.5405 87.2632 43.433 87.3787 43.433 87.5213C43.433 87.6638 43.5405 87.7793 43.6731 87.7793Z" fill="#303030"/>
<path d="M45.6583 87.7793C45.7909 87.7793 45.8983 87.6638 45.8983 87.5213C45.8983 87.3787 45.7909 87.2632 45.6583 87.2632C45.5257 87.2632 45.4183 87.3787 45.4183 87.5213C45.4183 87.6638 45.5257 87.7793 45.6583 87.7793Z" fill="#303030"/>
<path d="M44.709 89.6941C44.8416 89.6941 44.9491 89.5786 44.9491 89.4361C44.9491 89.2935 44.8416 89.178 44.709 89.178C44.5765 89.178 44.469 89.2935 44.469 89.4361C44.469 89.5786 44.5765 89.6941 44.709 89.6941Z" fill="#303030"/>
<path d="M82.8362 11.5088C82.6972 10.0596 82.3669 8.50754 81.3274 7.57087C79.9414 6.32018 77.8569 6.63962 76.1442 7.27851C72.5293 8.62846 69.3439 11.0595 66.4834 13.7864C63.6228 16.5134 61.0402 19.558 57.7827 22.1911C52.751 22.2182 47.7194 22.2435 42.6877 22.2706C42.6932 22.3265 42.7004 22.3824 42.7058 22.4384C43.2165 27.2841 43.5342 32.1642 43.8717 37.0262C44.5557 46.8657 45.052 56.7142 45.4761 66.5699C45.6566 70.784 45.9724 75.036 46.0771 79.2735C49.9049 78.4397 53.7581 77.7359 57.6311 77.1439C60.1054 75.3626 62.928 74.0921 65.7434 73.0995C67.5103 72.4769 69.306 71.9499 71.0873 71.3796C71.4139 70.8526 71.7334 70.3202 72.0366 69.7733C72.7206 68.5425 73.3919 67.2954 74.0236 66.0321C74.0723 65.9364 74.1192 65.8408 74.1662 65.7451C74.3232 65.081 74.4856 64.4187 74.6661 63.7599C74.8808 62.9749 75.0722 62.1808 75.3537 61.421C75.4584 61.134 75.5721 60.8507 75.6858 60.5673C75.7074 60.3688 75.7309 60.1721 75.7562 59.9681C75.8247 59.4141 75.9186 58.8727 76.0467 58.333C76.2146 57.6292 76.4564 56.9434 76.6621 56.2522C76.7 56.124 76.7397 55.9959 76.7812 55.8677C76.1406 52.2384 76.1333 48.3871 74.7978 44.8389C79.0751 39.2496 80.4665 31.8159 81.7208 24.7106C82.4897 20.3521 83.2603 15.9196 82.8362 11.5088Z" fill="#EDA15C"/>
<path d="M57.1708 34.0556C55.3192 34.4256 53.6389 35.6871 52.6824 37.4251C52.3828 37.9701 51.9858 38.6559 51.4029 38.5567C50.9065 38.4719 50.6719 37.8564 50.5979 37.324C50.3687 35.7052 50.7892 33.9925 51.7295 32.7039C50.9571 33.5503 50.3525 34.5718 49.9663 35.6817C49.7371 33.9474 50.376 32.1101 51.6068 30.9605C52.8376 29.8109 54.6225 29.3831 56.1927 29.865C55.3155 30.2621 54.563 30.9695 54.0811 31.8484C54.5828 31.3395 55.1766 30.9352 55.8191 30.6645C55.2542 31.0489 54.7651 31.5615 54.3951 32.1607C55.2993 31.1374 56.9055 30.9406 58.001 31.7185C57.095 31.7185 56.1999 32.1787 55.6314 32.9349C56.3443 32.3195 57.4289 32.2599 58.1959 32.7941C57.5101 32.7292 56.8081 32.8609 56.1836 33.1731C56.8694 32.9114 57.6924 33.1316 58.1815 33.7109C57.5119 33.7524 56.8514 33.9618 57.1708 34.0556Z" fill="#F0EAD7"/>
<path d="M43.8734 37.0263C43.8066 36.0733 43.7417 35.1186 43.6749 34.1639C43.8806 31.0219 43.581 27.748 43.249 24.624C44.321 28.1523 44.7776 31.8954 44.5917 35.6005C44.7812 32.8898 45.4309 30.2151 46.5047 27.7517C46.1961 31.9838 45.8875 36.2159 45.5771 40.4481C45.7269 39.7424 45.8785 39.0367 46.0283 38.3311C46.4398 39.2894 46.1961 40.4047 46.2106 41.4587C46.225 42.5127 46.7448 43.7706 47.7265 43.8175C48.277 43.8428 48.7697 43.4656 49.183 43.0722C50.3651 41.9514 51.3252 40.5654 51.9821 39.0277C51.031 40.9498 51.1664 43.8175 52.5524 45.7612C53.7797 47.483 55.8623 48.5189 56.5879 50.5402C57.2141 52.2854 56.6185 54.2796 55.6855 55.8606C54.6099 57.6816 53.0361 59.2247 51.1213 59.8816C49.2082 60.5385 46.9487 60.1956 45.467 58.7392C45.3587 58.8384 45.2486 58.9305 45.1367 59.0207C44.7884 51.6862 44.3823 44.3535 43.8734 37.0263Z" fill="#F0EAD7"/>
<path d="M45.4779 66.5699C45.1981 60.0584 44.8841 53.5487 44.5069 47.0444C44.5737 47.0137 44.6423 46.983 44.709 46.9505C47.0408 45.8099 48.9845 43.9438 51.5165 42.2997C51.8432 43.933 52.2005 45.6024 53.0488 47.0047C53.897 48.4069 55.348 49.5078 56.9037 49.4104C58.5262 49.3075 59.887 47.9215 60.5277 46.3188C61.1683 44.7162 61.2243 42.9241 61.042 41.0093C64.5901 42.8393 67.7827 45.4562 70.3635 48.6434C69.3637 47.4865 68.1094 46.5841 66.7324 46.0319C69.5875 48.351 71.385 52.1049 71.4771 55.9454C71.0638 53.9854 69.878 52.2258 68.27 51.1917C70.7606 55.5176 70.6378 61.2568 68.4722 65.7795C66.3065 70.3022 62.3071 73.6337 57.8675 75.4168C54.1046 76.9274 50.0403 77.3948 46.0139 77.2216C45.8767 73.668 45.6295 70.1054 45.4779 66.5699Z" fill="#F0EAD7"/>
<path d="M71.1576 40.3631C71.3489 38.0711 71.8741 35.8115 72.7097 33.6909C72.0275 35.4614 71.1324 37.1398 70.0567 38.6684C69.2753 38.3346 68.492 38.0025 67.7106 37.6686C69.2681 36.1508 70.5061 34.2594 71.3092 32.1749C70.3798 33.4238 69.1255 34.393 67.7268 34.9416C68.7645 33.7487 69.5243 32.2796 69.9196 30.7041C68.6526 31.6119 67.0464 31.9548 65.5521 31.6371C66.7613 30.2403 67.5048 28.3904 67.6239 26.4882C66.8497 27.6107 65.7091 28.4355 64.4476 28.7856C65.0702 27.8526 65.4637 26.7481 65.5792 25.6075C64.693 26.0009 63.6896 26.0821 62.7565 25.8385C65.6477 19.7619 70.4014 14.7266 76.1026 11.7001C76.3878 11.5485 76.7145 11.3987 77.0158 11.5124C77.4093 11.6622 77.5482 12.1747 77.6222 12.6151C79.2501 22.2182 76.4528 32.5648 71.1576 40.3631Z" fill="#F0EAD7"/>
<path d="M72.2279 72.3812C72.2243 72.3812 72.2225 72.3812 72.2207 72.3794C72.2225 72.3812 72.2279 72.3794 72.2369 72.3739C72.3019 72.3216 72.3578 72.2765 72.4083 72.2368C72.6682 72.0076 73.114 71.5781 73.1736 71.5257C73.2728 71.4373 73.3721 71.3543 73.4731 71.2749C73.5074 71.1684 73.5435 71.0619 73.576 70.9536C73.0707 71.5347 72.5329 72.0834 71.9698 72.5977C72.0636 72.5147 72.1521 72.4425 72.2279 72.3812Z" fill="#F0EAD7"/>
<path d="M45.1566 59.4375C45.3768 59.6667 45.7233 59.8075 46.0337 59.8869C47.8998 60.3651 49.8544 60.4445 51.7476 60.1197C52.6535 59.9645 53.5631 59.71 54.3428 59.192C55.1224 58.6741 55.7667 57.8601 56.4995 56.7646C55.4708 58.7174 53.814 60.2803 51.8775 61.1285C49.941 61.975 47.7374 62.0995 45.7287 61.4768C45.5681 61.4263 45.4057 61.3722 45.2432 61.3325C45.2144 60.699 45.1873 60.0673 45.1566 59.4375Z" fill="#2B2B2B"/>
<path d="M44.6025 48.692C45.2559 48.6307 45.911 48.5693 46.5643 48.5097C47.5226 48.4195 48.6741 48.4231 49.2155 49.2768C49.4663 49.6738 49.5205 50.1773 49.5187 50.6592C49.5097 53.2959 47.9215 55.8497 45.6547 56.8729C45.449 56.8982 45.2414 56.9036 45.0339 56.9C44.8985 54.1622 44.7559 51.428 44.6025 48.692Z" fill="#5E5E5E"/>
<path d="M44.709 50.6179C45.2035 50.6125 45.6908 50.5222 46.1492 50.3111C46.6329 50.0873 47.0588 49.739 47.5443 49.5206C48.0298 49.3022 48.6254 49.2318 49.0567 49.5567C49.5313 49.914 49.6468 50.6161 49.6071 51.2351C49.488 53.0741 48.3943 54.6515 47.344 56.1097C47.8403 56.1043 46.6834 57.0157 45.4544 57.1781C45.3191 57.1962 45.1837 57.2034 45.0501 57.2052C44.9419 55.0106 44.8282 52.8142 44.709 50.6179Z" fill="#1C1C1C"/>
<path d="M57.9884 37.851C58.3927 37.9069 58.7626 38.1848 58.9521 38.5729C59.1579 38.9934 59.1434 39.5023 59.0279 39.9589C58.7428 41.0797 57.8097 41.9929 56.7341 42.1481C55.6585 42.3033 54.5143 41.6572 54.0631 40.5996C53.6119 39.542 53.9259 38.1596 54.8066 37.481C55.6855 36.8006 57.0409 36.9432 57.9884 37.851Z" fill="#2B2B2B"/>
<path d="M61.7188 40.8269C60.9608 39.9209 60.0746 39.1394 59.1001 38.515C59.2715 39.6917 58.8384 40.9622 57.9649 41.6968C57.0914 42.4331 55.8046 42.5757 54.8355 41.9964C53.8645 41.417 53.296 40.1285 53.5433 38.968C53.6985 38.2425 54.1262 37.6235 54.5575 37.0405C53.5595 37.3112 52.6553 37.97 52.0507 38.8633C51.4461 39.7585 51.1447 40.8828 51.2151 41.9855C52.0219 42.4024 52.8286 42.8193 53.6353 43.2362C54.6983 43.7849 55.8569 44.3498 57.0156 44.1079C57.862 43.9329 58.5803 43.3463 59.2174 42.7237C59.8545 42.101 60.45 41.4134 61.7188 40.8269Z" fill="#99928A"/>
<path d="M55.0701 39.1593C55.3521 39.1593 55.5808 38.9137 55.5808 38.6107C55.5808 38.3076 55.3521 38.062 55.0701 38.062C54.788 38.062 54.5593 38.3076 54.5593 38.6107C54.5593 38.9137 54.788 39.1593 55.0701 39.1593Z" fill="white"/>
<path d="M72.4805 50.8125C72.6826 51.3684 72.8143 51.9513 72.8811 52.5415C72.8721 52.6064 72.8631 52.6732 72.8541 52.7382C72.7295 52.0975 72.605 51.455 72.4805 50.8125Z" fill="#C77543"/>
<path d="M64.7255 73.4729C67.1348 71.8739 69.2428 69.7516 70.8309 67.2339C70.0585 68.7066 69.2861 70.1775 68.5118 71.6502C71.4139 69.4429 73.5615 66.1222 74.4747 62.4351C74.6119 62.7076 74.7166 63 74.7924 63.2996C74.962 62.6661 75.1298 62.0326 75.3554 61.4208C75.4601 61.1339 75.5738 60.8505 75.6875 60.5672C75.7092 60.3687 75.7326 60.172 75.7579 59.968C75.8265 59.414 75.9203 58.8725 76.0485 58.3329C76.173 57.8113 76.3372 57.3006 76.4978 56.7899C76.3264 56.4849 76.1495 56.178 75.9636 55.8785C76.2163 51.9549 75.3536 47.9556 73.52 44.55C74.2022 46.4577 74.3718 48.5728 74.0073 50.5779C73.5507 48.8923 72.8631 47.277 71.9769 45.8007C72.892 47.887 73.2096 50.2675 72.8829 52.5469C73.067 54.1946 72.7295 55.9127 71.8993 57.3168C71.598 57.7085 71.3579 58.1506 71.1792 58.6217C71.1215 63.0271 68.898 67.1726 65.8697 70.1558C62.8251 73.1553 59.0243 75.1171 55.1783 76.7432C56.6149 76.6601 58.0389 76.3984 59.4231 75.9816C61.1124 74.9727 62.9117 74.1588 64.7255 73.4729Z" fill="#C77543"/>
<path d="M71.154 58.6758C71.0421 59.2786 70.9284 59.8832 70.8165 60.4859C70.8237 59.8669 70.9429 59.2515 71.154 58.6758Z" fill="#C77543"/>
<path d="M71.8705 39.311C71.1468 41.0436 70.6432 42.8826 70.3761 44.7578C70.6432 43.4403 69.9177 41.973 68.75 41.4731C69.1272 41.4587 69.5026 41.4424 69.8798 41.428C69.0659 40.892 68.0751 40.6682 67.1276 40.8072C67.6167 40.3686 68.2537 40.1268 68.889 40.1376C67.4975 39.0096 65.857 38.2372 64.1425 37.9015C64.9889 37.6434 65.8715 37.5261 66.7504 37.5568C65.9076 37.2121 65.0665 36.8674 64.2237 36.5227C64.9276 36.4884 65.6206 36.2303 66.1927 35.7918C64.8103 36.0137 63.3773 35.873 62.0562 35.3857C63.2347 35.2377 64.3807 34.7973 65.377 34.1079C64.3537 34.5339 63.186 34.5465 62.1555 34.1404C63.0543 33.8751 63.9061 33.4239 64.6497 32.8211C63.7274 33.1532 62.6789 33.0558 61.8234 32.5577C62.7168 32.2978 63.5578 31.8267 64.267 31.1897C63.0651 30.8341 61.7711 30.8449 60.5745 31.2185C61.291 30.5436 62.1663 30.0635 63.0976 29.8361C61.9263 28.9211 60.1829 28.9662 59.0549 29.9426C59.7209 29.0727 60.6269 28.4176 61.6267 28.0765C60.5926 27.4665 59.4231 27.1236 58.2428 27.0857C59.0531 27.4304 60.0006 27.0694 60.6594 26.454C61.3163 25.8386 61.753 25.0066 62.2241 24.2179C63.935 21.3502 66.2451 18.8939 68.9341 17.0837C66.2306 19.6068 64.0396 22.7561 62.5507 26.2519C63.6967 26.2519 64.8392 25.8332 65.7451 25.0824C65.294 26.4522 64.5666 27.7173 63.6264 28.7641C65.1784 28.7695 66.7251 28.1541 67.9 27.0658C67.355 28.8417 66.5031 30.5093 65.3986 31.9567C67.1384 32.2924 69.0244 31.5614 70.1614 30.1086C69.7553 31.9458 68.7609 33.6279 67.382 34.8046C68.806 34.0448 70.0856 32.9764 71.1233 31.6824C70.4916 33.7903 69.3655 35.7268 67.8765 37.2626C68.4956 37.6705 69.1146 38.0766 69.7336 38.4844C70.3978 37.3493 71.0637 36.2141 71.7279 35.0789C71.172 36.6292 70.8237 38.2661 70.6992 39.921C71.5239 39.8019 72.069 38.8382 71.8705 39.311Z" fill="#C77543"/>
<path d="M61.1466 41.1609C60.2695 42.8303 58.6164 43.9997 56.8405 44.2109C57.566 44.3282 58.3168 44.2723 59.0206 44.0503C57.862 44.7993 56.4976 45.1764 55.144 45.1205C56.2955 45.4056 57.5155 45.3659 58.6489 45.0104C57.7483 45.8334 56.5229 46.2304 55.348 46.0824C56.1637 46.3513 56.9344 46.7863 57.7718 46.9595C58.611 47.1328 59.5855 46.9776 60.1197 46.2629C60.4735 45.7865 60.5709 45.1548 60.6936 44.561C60.9445 43.3573 61.3596 42.1914 61.9191 41.114C61.4462 41.0706 60.9607 41.2259 61.1466 41.1609Z" fill="#C77543"/>
<path d="M51.8504 60.3994C51.6104 60.5041 51.3649 60.5979 51.1177 60.6791L51.8504 60.3994Z" fill="#D7BD9C"/>
<path d="M45.4779 66.5699C45.4436 65.7903 45.4093 65.0124 45.375 64.2328C45.3949 64.231 45.4147 64.2328 45.4346 64.231C47.9829 64.0613 50.4319 62.6031 51.9154 60.3742C51.8938 60.3832 51.8721 60.3905 51.8504 60.3995C54.0685 59.4339 55.9671 57.4343 57.3278 53.8049C57.2105 57.409 56.2612 61.0672 54.1533 63.8772C52.0923 66.6277 48.8239 68.4432 45.5519 68.1581C45.5266 67.6275 45.5013 67.0987 45.4779 66.5699Z" fill="#D7BD9C"/>
<path d="M51.1772 42.1535C51.4516 40.919 51.7818 39.6846 52.3594 38.6342C52.9387 37.5839 53.7977 36.723 54.8228 36.4884C56.1547 36.1852 57.5318 36.963 58.6814 37.925C59.6866 38.7642 60.6071 39.7622 61.4156 40.8829C60.8904 41.3359 60.3652 41.7889 59.84 42.2437C58.7843 43.1551 57.6292 44.1062 56.3136 44.0575C54.6063 43.9961 53.1101 42.2618 51.1772 42.1535Z" stroke="#2B2B2B" stroke-width="0.902374" stroke-miterlimit="10" stroke-linecap="round" stroke-linejoin="round"/>
<path d="M58.3619 37.6307C58.9756 38.5565 59.064 39.8613 58.5569 40.8575C58.0497 41.8556 56.9615 42.4836 55.9075 42.3627C54.8535 42.2418 53.906 41.3611 53.6696 40.253C53.4332 39.1448 53.9421 37.8941 54.8734 37.3527C55.8046 36.8113 57.077 37.0459 58.3619 37.6307Z" stroke="#2B2B2B" stroke-width="0.902374" stroke-miterlimit="10" stroke-linecap="round" stroke-linejoin="round"/>
<path d="M44.5953 48.5531C45.3948 48.5278 46.1961 48.526 46.9957 48.5495C47.5443 48.5657 48.1218 48.6036 48.5856 48.9195C49.2227 49.3544 49.4898 50.2171 49.5422 51.0256C49.6306 52.4153 49.2011 53.8338 48.3709 54.9022C47.5407 55.9706 46.3189 56.6781 45.0321 56.8369C44.8949 54.0774 44.7505 51.3144 44.5953 48.5531Z" stroke="#2B2B2B" stroke-width="0.902374" stroke-miterlimit="10" stroke-linecap="round" stroke-linejoin="round"/>
<path d="M45.5753 59.6685C48.5477 61.1448 52.3503 60.9445 54.7434 58.4214C57.1113 55.7053 57.7159 52.0922 58.1364 48.7949" stroke="#2B2B2B" stroke-width="0.902374" stroke-miterlimit="10" stroke-linecap="round" stroke-linejoin="round"/>
<path d="M51.5472 60.4121C50.8145 62.8702 47.7898 63.6191 45.7017 63.9025" stroke="#2B2B2B" stroke-width="0.902374" stroke-miterlimit="10" stroke-linecap="round" stroke-linejoin="round"/>
<path d="M70.452 40.789C73.1862 36.9449 75.5197 32.7272 76.9563 28.1432C78.3929 23.5591 78.9036 18.587 78.0193 13.8459C77.8677 13.0356 77.5537 12.0953 76.8047 11.904C76.321 11.7813 75.8283 12.0286 75.3916 12.2794C69.9178 15.4251 65.3824 20.4152 62.5887 26.3619C63.8484 26.5063 65.1568 26.0515 66.0971 25.1401C65.4636 26.5261 64.6569 27.8219 63.7058 28.9824C65.3752 28.8272 66.9742 27.9464 68.0661 26.5821C67.5211 28.551 66.5718 30.3919 65.3084 31.9349C67.059 32.2454 68.9432 31.4513 70.0261 29.9425C69.5171 31.9295 68.5083 33.765 67.1348 35.2051C68.9396 34.3732 70.4772 32.8933 71.4446 31.0596C70.9393 33.4978 69.7229 35.761 68.0083 37.4521C68.5841 37.7679 69.1598 38.0837 69.7355 38.3995C71.0133 36.6832 72.1123 34.8135 73.0057 32.8373C71.8777 35.5769 70.7516 38.3147 70.452 40.789Z" stroke="#2B2B2B" stroke-width="0.902374" stroke-miterlimit="10" stroke-linecap="round" stroke-linejoin="round"/>
<path d="M74.9367 69.3638C74.3304 67.4471 73.9369 64.7274 74.9367 62.5833C76.8426 58.4956 77.5843 49.2986 74.3195 45.4021C74.9295 44.525 75.72 43.619 76.3047 42.5506C76.4581 42.3304 76.4058 41.9478 76.5574 41.7294C79.6868 36.548 81.257 30.632 81.9085 24.6637C82.6629 19.4607 83.623 14.4218 82.3867 9.33421C81.3851 5.97016 77.5302 5.78788 75.0071 7.35259C74.0127 8.09434 73.0201 8.8361 71.8217 9.41362C66.4436 12.7939 62.1645 17.5657 58.2699 22.4746C53.2653 21.8844 48.1615 21.8971 43.0486 22.2255" stroke="#2B2B2B" stroke-width="0.902374" stroke-miterlimit="10" stroke-linecap="round" stroke-linejoin="round"/>
<path d="M71.5564 62.1736C68.4396 70.2625 60.7604 76.09 52.612 76.5502" stroke="#2B2B2B" stroke-width="0.902374" stroke-miterlimit="10" stroke-linecap="round" stroke-linejoin="round"/>
<path d="M64.8987 55.2596C60.8344 52.3521 55.5177 51.5598 50.8668 53.1679" stroke="#2B2B2B" stroke-width="0.36095" stroke-miterlimit="10" stroke-linecap="round" stroke-linejoin="round"/>
<path d="M64.4187 57.1347C60.82 54.9942 56.55 54.1785 52.4839 54.8589" stroke="#2B2B2B" stroke-width="0.36095" stroke-miterlimit="10" stroke-linecap="round" stroke-linejoin="round"/>
<path d="M62.5905 60.3058C59.9032 57.6961 56.2323 56.2884 52.612 56.4779" stroke="#2B2B2B" stroke-width="0.36095" stroke-miterlimit="10" stroke-linecap="round" stroke-linejoin="round"/>
<path d="M57.3567 32.8264C55.3426 33.0105 53.4585 34.3749 52.5471 36.3096" stroke="#2B2B2B" stroke-width="0.36095" stroke-miterlimit="10" stroke-linecap="round" stroke-linejoin="round"/>
<path d="M56.8442 30.2168C54.368 31.3394 52.3431 33.5592 51.3487 36.2374" stroke="#2B2B2B" stroke-width="0.36095" stroke-miterlimit="10" stroke-linecap="round" stroke-linejoin="round"/>
<path d="M74.7707 64.2146C74.8159 63.3032 74.8664 62.3774 74.9368 61.4534C70.4754 66.8532 65.5395 72.1194 59.2373 74.8211C55.0629 76.6096 50.5041 77.1529 46.0031 76.8767C46.0644 78.3675 46.1059 79.8564 46.1149 81.3417C49.7136 81.293 53.2563 80.7804 56.6818 79.7824C63.4026 77.8224 69.6344 74.0054 74.6697 68.8474C74.6336 67.3044 74.6967 65.7469 74.7707 64.2146Z" fill="#303030" stroke="#2B2B2B" stroke-width="0.721899" stroke-miterlimit="10"/>
<path d="M44.9328 56.8152C45.2433 57.88 45.3551 59.0134 45.2559 60.1251C45.2216 60.5113 45.1404 60.9336 44.8516 61.1646" stroke="#2B2B2B" stroke-width="0.902374" stroke-miterlimit="10" stroke-linecap="round" stroke-linejoin="round"/>
<path d="M40.9642 62.0543C41.7547 62.4875 42.704 62.3178 43.5756 62.1373C44.2777 61.9911 45.0212 61.8251 45.523 61.2747C45.523 61.2873 45.5248 61.2981 45.5248 61.3108" stroke="#2B2B2B" stroke-width="0.902374" stroke-miterlimit="10" stroke-linecap="round" stroke-linejoin="round"/>
<path d="M44.9599 61.1972C47.0534 62.0887 49.5151 61.9263 51.4913 60.7659" stroke="#2B2B2B" stroke-width="0.902374" stroke-miterlimit="10" stroke-linecap="round" stroke-linejoin="round"/>
<path d="M40.7783 61.9624C42.3015 63.269 44.2885 63.9404 46.2358 63.8032C48.1831 63.6661 50.0727 62.7258 51.4245 61.217" stroke="#2B2B2B" stroke-width="0.902374" stroke-miterlimit="10" stroke-linecap="round" stroke-linejoin="round"/>
<path d="M39.8615 61.5147C41.3215 63.5504 43.9131 64.4492 46.2845 64.0846C48.656 63.7201 50.7892 62.2203 52.3557 60.2766" stroke="#2B2B2B" stroke-width="0.902374" stroke-miterlimit="10" stroke-linecap="round" stroke-linejoin="round"/>
<path d="M13.7774 67.4597C11.7777 75.2147 9.53083 82.9066 7.03667 90.5172C5.76613 94.3974 4.42339 98.2884 3.90543 102.338C3.38747 106.388 3.75203 110.673 5.73003 114.244C7.70804 117.816 11.5052 120.53 15.5876 120.48C18.412 120.445 21.0939 119.135 23.3137 117.39C24.5572 116.412 25.8115 115.237 27.3888 115.107C28.986 114.977 30.4876 116.002 31.4405 117.292C32.3934 118.583 32.9222 120.126 33.5791 121.588C34.4057 123.43 35.4849 125.217 37.0677 126.473C38.6504 127.729 40.8071 128.388 42.7418 127.811C44.5105 127.282 45.8749 125.795 46.6383 124.113C47.4017 122.431 47.6363 120.561 47.7572 118.718C47.9648 115.531 47.8493 112.286 46.9541 109.22C46.0571 106.154 44.33 103.266 41.7564 101.373C38.2859 98.8172 33.6314 98.3245 29.3885 99.0897C25.1455 99.855 21.2021 101.745 17.3201 103.616" stroke="#2B2B2B" stroke-width="0.902374" stroke-miterlimit="10" stroke-linecap="round" stroke-linejoin="round"/>
<path d="M26.2464 95.3665C26.4034 96.8445 26.3132 98.3497 25.9811 99.7989" stroke="#2B2B2B" stroke-width="0.902374" stroke-miterlimit="10" stroke-linecap="round" stroke-linejoin="round"/>
<path d="M76.3535 97.931C73.4731 96.6821 70.4952 95.5541 67.3748 95.2148C64.2544 94.8755 60.9463 95.3935 58.3782 97.1964C55.5609 99.1762 53.9277 102.481 53.1281 105.832C52.1554 109.904 52.2637 114.228 53.4386 118.247C54.1569 120.703 55.3155 123.109 57.2358 124.802C59.156 126.495 61.9407 127.354 64.3573 126.511C66.5934 125.731 68.1779 123.641 68.9161 121.391C69.6542 119.14 69.6651 116.724 69.6055 114.358C69.5766 113.233 69.5838 111.974 70.3707 111.169C71.5059 110.008 73.4785 110.535 74.8627 111.384C76.3101 112.27 77.5843 113.412 79.0317 114.296C80.4773 115.183 82.1864 115.812 83.8558 115.509C85.9024 115.137 87.4978 113.401 88.2377 111.456C88.9777 109.51 89.0029 107.375 88.9271 105.296C88.4453 91.9464 83.919 78.3512 74.4224 68.9575" stroke="#2B2B2B" stroke-width="0.902374" stroke-miterlimit="10" stroke-linecap="round" stroke-linejoin="round"/>
<path d="M60.838 112.412C59.766 117.076 59.9916 122.032 61.4859 126.578" stroke="#2B2B2B" stroke-width="0.902374" stroke-miterlimit="10" stroke-linecap="round" stroke-linejoin="round"/>
<path d="M64.6425 112.882C65.9653 116.876 66.5068 121.126 66.2216 125.324" stroke="#2B2B2B" stroke-width="0.902374" stroke-miterlimit="10" stroke-linecap="round" stroke-linejoin="round"/>
<path d="M57.3278 109.361C55.8515 113.158 55.0159 117.202 54.8698 121.274" stroke="#2B2B2B" stroke-width="0.902374" stroke-miterlimit="10" stroke-linecap="round" stroke-linejoin="round"/>
<path d="M35.7087 117.388C37.3475 120.407 38.3473 123.771 38.618 127.197" stroke="#2B2B2B" stroke-width="0.902374" stroke-miterlimit="10" stroke-linecap="round" stroke-linejoin="round"/>
<path d="M39.0583 116.453C41.2962 119.664 42.657 123.477 42.9548 127.379" stroke="#2B2B2B" stroke-width="0.902374" stroke-miterlimit="10" stroke-linecap="round" stroke-linejoin="round"/>
<path d="M43.2274 114.255C45.1909 116.749 46.4994 119.754 46.9903 122.891" stroke="#2B2B2B" stroke-width="0.902374" stroke-miterlimit="10" stroke-linecap="round" stroke-linejoin="round"/>
<path d="M14.4218 137.836L16.3059 120.294C16.333 120.046 16.1525 119.824 15.9053 119.797C15.6562 119.77 15.4342 119.951 15.409 120.198L13.514 137.841C13.8172 137.838 14.1186 137.838 14.4218 137.836Z" fill="#2B2B2B"/>
<path d="M82.625 137.043C82.9264 137.033 83.226 137.022 83.5274 137.011C83.1917 129.362 81.9428 121.763 79.8042 114.412C79.7356 114.172 79.4847 114.035 79.2447 114.105C79.0047 114.176 78.8675 114.425 78.9379 114.665C81.0549 121.945 82.2929 129.469 82.625 137.043Z" fill="#2B2B2B"/>
</svg>
